<svg xmlns="http://www.w3.org/2000/svg" width="24" height="24" viewBox="0 0 24 24" fill="none" stroke="#ffffff" stroke-width="2" stroke-linecap="round" stroke-linejoin="round" class="lucide lucide-puzzle"><path d="M19.439 7.85c-.049.322.059.648.289.878l1.568 1.568c.47.47.706 1.087.706 1.704s-.235 1.233-.706 1.704l-1.611 1.611a.98.98 0 0 1-.837.276c-.47-.07-.802-.452-.748-.922.071-.619-.237-1.285-.837-1.637-1.155-.679-2.763.006-2.763 1.273v1.778c0 .922-.759 1.681-1.682 1.681h-1.713c-.923 0-1.682-.759-1.682-1.681v-1.504c0-.897-.67-1.665-1.566-1.665-.691 0-1.357.378-1.63 1.013-.301.697-1.094 1.08-1.847.834-.75-.245-1.195-1.036-.969-1.79l.324-1.087a1.85 1.85 0 0 0-.121-1.585 1.86 1.86 0 0 0-1.51-.86H2c-.414 0-.75-.336-.75-.75v-3C1.25 4.336 1.586 4 2 4h1.651c.925 0 1.719-.673 1.846-1.592.095-.699.691-1.26 1.39-1.361.704-.101 1.401.274 1.597.963.29 1.011 1.236 1.74 2.316 1.74h1.618c.924 0 1.682.758 1.682 1.681v1.484c0 .966.783 1.762 1.749 1.761.667-.001 1.33-.393 1.56-1.02.334-.905 1.328-1.399 2.25-1.117.923.282 1.478 1.253 1.265 2.19l-.283 1.253a.98.98 0 0 0 .198.848Z"></path></svg> 